<?xml version="1.0" encoding="utf-8"?>
<!-- Generator: Adobe Illustrator 24.1.3, SVG Export Plug-In . SVG Version: 6.00 Build 0)  -->
<svg version="1.1" id="Layer_1" xmlns="http://www.w3.org/2000/svg" xmlns:xlink="http://www.w3.org/1999/xlink" x="0px" y="0px"
	 viewBox="0 0 1476 768" style="enable-background:new 0 0 1476 768;" xml:space="preserve">
<style type="text/css">
	.st0{fill:#97F9F9;}
	.st1{fill:#A4DEF9;}
	.st2{fill:#C1E0F7;}
	.st3{fill:#CFBAE1;}
</style>
<g>
	<rect class="st0" width="1366" height="768"/>
</g>
<g>
	<path class="st1" d="M64,0v768h1302V0H64z M933.5,522C784.7,522,664,447.5,664,355.5S784.7,189,933.5,189S1203,263.5,1203,355.5
		S1082.3,522,933.5,522z"/>
</g>
<g>
	<path class="st1" d="M933.5,521.5c-148.3,0-269-74.5-269-166s120.7-166,269-166s269,74.5,269,166S1081.8,521.5,933.5,521.5z
		 M975,207c-87.1,0-158,65-158,145s70.9,145,158,145s158-65,158-145S1062.1,207,975,207z"/>
	<path d="M933.5,190c36.3,0,71.5,4.4,104.6,13.1c32,8.4,60.7,20.3,85.4,35.6c24.6,15.2,44,32.9,57.5,52.6c13.9,20.4,21,42,21,64.2
		s-7.1,43.9-21,64.2c-13.5,19.7-32.8,37.4-57.5,52.6s-53.4,27.2-85.4,35.6c-33.1,8.7-68.4,13.1-104.6,13.1s-71.5-4.4-104.6-13.1
		c-32-8.4-60.7-20.3-85.4-35.6c-24.6-15.2-44-32.9-57.5-52.6c-13.9-20.4-21-42-21-64.2s7.1-43.9,21-64.2
		c13.5-19.7,32.8-37.4,57.5-52.6c24.7-15.2,53.4-27.2,85.4-35.6C862,194.4,897.2,190,933.5,190 M975,497.5
		c87.4,0,158.5-65.3,158.5-145.5S1062.4,206.5,975,206.5S816.5,271.8,816.5,352S887.6,497.5,975,497.5 M933.5,189
		C784.7,189,664,263.5,664,355.5S784.7,522,933.5,522S1203,447.5,1203,355.5S1082.3,189,933.5,189L933.5,189z M975,496.5
		c-87,0-157.5-64.7-157.5-144.5S888,207.5,975,207.5s157.5,64.7,157.5,144.5S1062,496.5,975,496.5L975,496.5z"/>
</g>
<g>
	
		<image style="overflow:visible;opacity:0.75;enable-background:new    ;" width="220" height="210" xlink:href="46C78DEE.png"  transform="matrix(1 0 0 1 970 258)">
	</image>
	<g>
		<ellipse class="st1" cx="1060.1" cy="342.9" rx="64.8" ry="59.3"/>
	</g>
</g>
<g>
	<path class="st1" d="M933.5,189C784.7,189,664,263.5,664,355.5S784.7,522,933.5,522S1203,447.5,1203,355.5S1082.3,189,933.5,189z
		 M975,496.5c-87,0-157.5-64.7-157.5-144.5S888,207.5,975,207.5s157.5,64.7,157.5,144.5S1062,496.5,975,496.5z"/>
</g>
<g>
	
		<image style="overflow:visible;opacity:0.75;enable-background:new    ;" width="1320" height="855" xlink:href="46C78DE8.png"  transform="matrix(1 0 0 1 111 -22)">
	</image>
	<g>
		<path class="st2" d="M136,3.9v763.5h1230V3.9H136z M933.5,522.8c-148.8,0-269.5-74.1-269.5-165.5s120.7-165.5,269.5-165.5
			S1203,265.9,1203,357.3S1082.3,522.8,933.5,522.8z"/>
	</g>
</g>
<g>
	
		<image style="overflow:visible;opacity:0.75;enable-background:new    ;" width="221" height="209" xlink:href="46C78DE7.png"  transform="matrix(1 0 0 1 753 277)">
	</image>
	<g>
		<ellipse class="st1" cx="843.4" cy="361.4" rx="64.8" ry="59.3"/>
	</g>
</g>
<g>
	
		<image style="overflow:visible;opacity:0.75;enable-background:new    ;" width="627" height="429" xlink:href="46C78DF6.png"  transform="matrix(1 0 0 1 640 208)">
	</image>
	<g>
		<path class="st3" d="M911.6,237.5C764,256.9,654,346.5,666,437.7s141.3,149.4,288.9,130.1c147.6-19.3,257.5-108.9,245.6-200.1
			S1059.2,218.2,911.6,237.5z M992.7,537c-86.2,11.3-164.6-43.7-174.9-122.8s51.1-152.4,137.4-163.7
			c86.2-11.3,164.6,43.7,174.9,122.8C1140.4,452.4,1078.9,525.7,992.7,537z"/>
	</g>
</g>
<rect x="1340" class="st1" width="136" height="768"/>
<rect x="1408" class="st0" width="68" height="768"/>
</svg>
